<svg xmlns="http://www.w3.org/2000/svg" viewBox="0 0 841.71 238.17"><title>narcos_logo</title><g id="narcos_logo" data-name="narcos logo"><g id="narcos_logo"><path id="letter_n" d="M23.8,62.35l4.45,171.07H0V4.76H32.25L71.31,173.65l.86-.09c-1.24-18.48-2.87-36.94-3.6-55.43-.75-18.81-.7-37.65-.83-56.47s0-37.61,0-56.83H95.24V233.35H61.85L24.31,62.11Z" style="fill:#dbdbdb"/><path id="letter_a" d="M246.74,233.54h-29.5L211.36,192h-34.3l-5.24,41.55H142.65l32-228.83h36.76ZM191.6,47.35c.21,39.34-7.4,77.33-11,115.91h26.62c-4.3-38.51-12.73-76.17-13.39-114.73C193.79,48.31,193,48.11,191.6,47.35Z" style="fill:#dbdbdb"/><path id="letter_r" d="M301,4.81a19.63,19.63,0,0,1,2.84-.38c19,.13,38,.23,57,.51a46.34,46.34,0,0,1,9.37,1.34c10.65,2.39,16.8,9.37,18.43,19.88,3.65,23.51,3.4,47.16.4,70.68-1.75,13.68-8.35,19-21,19.68a2.72,2.72,0,0,0-2,1c1.61.44,3.2,1,4.83,1.3,9.08,1.93,15.1,7.41,16.64,16.46A187.61,187.61,0,0,1,389.86,161c.48,15.81,0,31.66.78,47.45.4,8.35,2.55,16.61,3.94,25.06h-30.4c-1.16-7.58-3-15.22-3.39-22.94-.83-14.79-.74-29.62-1.32-44.43-.32-8.14-.85-16.3-1.95-24.37-1.31-9.69-4.64-12.57-14.28-13.34-3.94-.31-7.92-.05-12.56-.05,0,17.58,0,35,0,52.42s0,34.91,0,52.65H301Zm30.36,27.64v70.17c1.24.09,2.06.2,2.88.21,4.16,0,8.32.11,12.47,0,8-.28,12.28-3.24,12.71-11.14.9-16.73.76-33.52,1-50.28a13.41,13.41,0,0,0-.67-2.91c-.77-3.49-2.91-5.82-6.45-5.93C346.07,32.29,338.81,32.45,331.38,32.45Z" style="fill:#dbdbdb"/><path id="letter_c" d="M515.52,139H545c.3.42.65.68.65.93-.31,18.3.75,36.75-1.31,54.85-3.54,31.09-24.35,43.2-53,41.62a55.33,55.33,0,0,1-11.78-2c-19.82-5.56-31.26-20.8-31.82-43.22-.48-19-.28-38-.3-57,0-23.49-.11-47,.13-70.46a121.75,121.75,0,0,1,1.85-21.84c4.94-25.48,18.84-37.74,44.67-39.58a68.59,68.59,0,0,1,17.39,1c18.57,3.5,29.87,15.54,33,34.68a90.55,90.55,0,0,1,1.24,13.4c.17,11.81.06,23.62.06,35.82H515.7c0-1.87,0-3.64,0-5.41,0-11.49.3-23-.17-34.48-.72-17.4-12.15-20.48-24.44-18.16-7.71,1.46-11.19,7.41-12.32,14.65a88.54,88.54,0,0,0-.93,13.44q-.1,63.22,0,126.43a93.73,93.73,0,0,0,.82,12.45c1.18,8.71,6.24,13.24,15,13.82,13.74.91,20-3.9,21.22-17.71.89-10.26.52-20.63.63-30.95C515.58,154.09,515.52,146.79,515.52,139Z" style="fill:#dbdbdb"/><path id="letter_o" d="M601.56,121.44c0-24-.06-48,.07-71.94a54.2,54.2,0,0,1,1.47-11.36c4.53-20.37,21-34,42.45-35.16,16-.88,30.53,2.24,41.21,15.54,7.49,9.32,9.73,20.39,9.81,31.85.32,42.64.33,85.28.43,127.92,0,4.49,0,9-.36,13.48A82.31,82.31,0,0,1,694.57,205c-3.7,14.35-12.66,23.86-27,28.14a66.85,66.85,0,0,1-30.14,2c-21-3.42-34.33-18.12-35.85-39.36-.45-6.31-.64-12.64-.67-19-.09-18.49,0-37,0-55.47Zm29.92-1h-.15q0,32.71,0,65.43a69.42,69.42,0,0,0,.62,11.45c1.54,9,6.74,13.33,15.75,13.59,9.82.29,15.77-3.62,17.75-12.5A72.34,72.34,0,0,0,667,183q.24-59.18.11-118.37a142.18,142.18,0,0,0-1.56-22.35c-1.47-9-6.7-13-15.47-13.22s-15.38,4.3-17.57,12.51a33.36,33.36,0,0,0-1,8.37C631.44,73.46,631.48,96.93,631.48,120.4Z" style="fill:#dbdbdb"/><path id="letter_s" d="M840.16,79.83H812.23c-.08-1.83-.23-3.59-.23-5.35,0-11,0-22,0-33,0-2,0-4-.2-6-.57-6.87-3.42-10.38-9.12-11.37-6.8-1.17-13.1,1.58-15.33,7.47A39.61,39.61,0,0,0,785,43.25c-.71,12.52,1.07,24.73,7.45,35.69,6.11,10.49,12.92,20.57,19.38,30.85s13.46,20.29,19.21,31c10.41,19.31,13.11,40,8.5,61.51-5.59,26.12-24.06,39-50.48,35.29-21.23-3-33.69-15.21-35.4-36.78-1.23-15.57-.73-31.29-1-46.94,0-1.12,0-2.25,0-3.65H780.4c.08,1.55.22,3.14.22,4.74,0,12.33,0,24.66.05,37a55.84,55.84,0,0,0,.88,9.92c1.5,7.9,6.4,11.89,14.24,12,7.51.1,12.44-3.65,13.73-11.75,2.79-17.65,1.91-35-7.45-50.83-6.86-11.59-14.33-22.84-21.76-34.08-8.27-12.52-16.62-25-21.24-39.43-5-15.55-6.29-31.32-1.63-47.2C763,11.68,776,1.22,795.54.12A81.69,81.69,0,0,1,812.44,1c14.16,2.18,24.35,11.14,25.76,25.36C839.94,44,839.59,61.81,840.16,79.83Z" style="fill:#dbdbdb"/></g></g></svg>